<?xml version="1.0" encoding="utf-8"?>
<!-- Generator: Adobe Illustrator 19.0.0, SVG Export Plug-In . SVG Version: 6.00 Build 0)  -->
<svg version="1.1" id="Layer_4" xmlns="http://www.w3.org/2000/svg" xmlns:xlink="http://www.w3.org/1999/xlink" x="0px" y="0px"
	 viewBox="6 -6 512 512" style="enable-background:new 6 -6 512 512;" xml:space="preserve">
<style type="text/css">
	.st0{fill:#60ADE0;}
	.st1{clip-path:url(#SVGID_2_);fill:#F1F5F6;}
	.st2{fill:#D8D9D8;}
	.st3{fill:#B0B0B0;}
	.st4{opacity:0.3;enable-background:new    ;}
	.st5{clip-path:url(#SVGID_4_);}
	.st6{fill:#231F20;}
	.st7{fill:#D5D7D8;}
	.st8{fill:#158F98;}
	.st9{fill:#4A5055;}
</style>
<g>
	<circle class="st0" cx="262.1" cy="291.3" r="167.2"/>
	<g>
		<g>
			<defs>
				<circle id="SVGID_1_" cx="262.1" cy="291.3" r="167.2"/>
			</defs>
			<clipPath id="SVGID_2_">
				<use xlink:href="#SVGID_1_"  style="overflow:visible;"/>
			</clipPath>
			<path class="st1" d="M384.9,459.1c0,6.2-5.1,11.3-11.3,11.3H155c-6.2,0-11.3-5.1-11.3-11.3V211.9c0-6.2,5.1-11.3,11.3-11.3h187
				l42.9,43.3V459.1z"/>
		</g>
	</g>
	<path class="st2" d="M223,313.9c0,2.5-2,4.5-4.5,4.5h-57.3c-2.5,0-4.5-2-4.5-4.5v-1.4c0-2.5,2-4.5,4.5-4.5h57.3
		c2.5,0,4.5,2,4.5,4.5V313.9z"/>
	<path class="st2" d="M223,331.9c0,2.5-2,4.5-4.5,4.5h-57.3c-2.5,0-4.5-2-4.5-4.5v-1.4c0-2.5,2-4.5,4.5-4.5h57.3
		c2.5,0,4.5,2,4.5,4.5V331.9z"/>
	<path class="st2" d="M223,350c0,2.5-2,4.5-4.5,4.5h-57.3c-2.5,0-4.5-2-4.5-4.5v-1.4c0-2.5,2-4.5,4.5-4.5h57.3c2.5,0,4.5,2,4.5,4.5
		V350z"/>
	<path class="st2" d="M223,368.1c0,2.5-2,4.5-4.5,4.5h-57.3c-2.5,0-4.5-2-4.5-4.5v-1.4c0-2.5,2-4.5,4.5-4.5h57.3
		c2.5,0,4.5,2,4.5,4.5V368.1z"/>
	<path class="st2" d="M223,386.1c0,2.5-2,4.5-4.5,4.5h-57.3c-2.5,0-4.5-2-4.5-4.5v-1.4c0-2.5,2-4.5,4.5-4.5h57.3
		c2.5,0,4.5,2,4.5,4.5V386.1z"/>
	<path class="st2" d="M299.7,313.9c0,2.5-2,4.5-4.5,4.5h-57.3c-2.5,0-4.5-2-4.5-4.5v-1.4c0-2.5,2-4.5,4.5-4.5h57.3
		c2.5,0,4.5,2,4.5,4.5V313.9z"/>
	<path class="st2" d="M299.7,331.9c0,2.5-2,4.5-4.5,4.5h-57.3c-2.5,0-4.5-2-4.5-4.5v-1.4c0-2.5,2-4.5,4.5-4.5h57.3
		c2.5,0,4.5,2,4.5,4.5V331.9z"/>
	<path class="st2" d="M299.7,350c0,2.5-2,4.5-4.5,4.5h-57.3c-2.5,0-4.5-2-4.5-4.5v-1.4c0-2.5,2-4.5,4.5-4.5h57.3
		c2.5,0,4.5,2,4.5,4.5V350z"/>
	<path class="st2" d="M299.7,368.1c0,2.5-2,4.5-4.5,4.5h-57.3c-2.5,0-4.5-2-4.5-4.5v-1.4c0-2.5,2-4.5,4.5-4.5h57.3
		c2.5,0,4.5,2,4.5,4.5V368.1z"/>
	<path class="st2" d="M299.7,386.1c0,2.5-2,4.5-4.5,4.5h-57.3c-2.5,0-4.5-2-4.5-4.5v-1.4c0-2.5,2-4.5,4.5-4.5h57.3
		c2.5,0,4.5,2,4.5,4.5V386.1z"/>
	<path class="st2" d="M299.7,404.2c0,2.5-2,4.5-4.5,4.5h-57.3c-2.5,0-4.5-2-4.5-4.5v-1.4c0-2.5,2-4.5,4.5-4.5h57.3
		c2.5,0,4.5,2,4.5,4.5V404.2z"/>
	<path class="st2" d="M374.2,313.9c0,2.5-2,4.5-4.5,4.5h-57.3c-2.5,0-4.5-2-4.5-4.5v-1.4c0-2.5,2-4.5,4.5-4.5h57.3
		c2.5,0,4.5,2,4.5,4.5V313.9z"/>
	<path class="st2" d="M374.2,331.9c0,2.5-2,4.5-4.5,4.5h-57.3c-2.5,0-4.5-2-4.5-4.5v-1.4c0-2.5,2-4.5,4.5-4.5h57.3
		c2.5,0,4.5,2,4.5,4.5V331.9z"/>
	<path class="st2" d="M374.2,350c0,2.5-2,4.5-4.5,4.5h-57.3c-2.5,0-4.5-2-4.5-4.5v-1.4c0-2.5,2-4.5,4.5-4.5h57.3
		c2.5,0,4.5,2,4.5,4.5V350z"/>
	<path class="st2" d="M374.2,368.1c0,2.5-2,4.5-4.5,4.5h-57.3c-2.5,0-4.5-2-4.5-4.5v-1.4c0-2.5,2-4.5,4.5-4.5h57.3
		c2.5,0,4.5,2,4.5,4.5V368.1z"/>
	<path class="st2" d="M374.2,386.1c0,2.5-2,4.5-4.5,4.5h-57.3c-2.5,0-4.5-2-4.5-4.5v-1.4c0-2.5,2-4.5,4.5-4.5h57.3
		c2.5,0,4.5,2,4.5,4.5V386.1z"/>
	<path class="st2" d="M156.6,282c0,2.5,2,4.5,4.5,4.5h208.6c2.5,0,4.5-2,4.5-4.5v-3.1c0-2.5-2-4.5-4.5-4.5H161.2
		c-2.5,0-4.5,2-4.5,4.5L156.6,282L156.6,282z"/>
	<path class="st2" d="M156.6,257.2c0,2.5,2,4.5,4.5,4.5h208.6c2.5,0,4.5-2,4.5-4.5V254c0-2.5-2-4.5-4.5-4.5H161.2
		c-2.5,0-4.5,2-4.5,4.5L156.6,257.2L156.6,257.2z"/>
	<path class="st2" d="M156.6,232.3c0,2.5,2,4.5,4.5,4.5h188.2c2.5,0,4.5-2,4.5-4.5v-3.1c0-2.5-2-4.5-4.5-4.5H161.2
		c-2.5,0-4.5,2-4.5,4.5L156.6,232.3L156.6,232.3z"/>
	<path class="st3" d="M384.9,243.9c0,0-5.1,0-11.3,0h-20.3c-6.2,0-11.3-5.1-11.3-11.3v-20.7c0-6.2,0-11.3,0-11.3L384.9,243.9z"/>
	<g class="st4">
		<g>
			<defs>
				<circle id="SVGID_3_" cx="262.1" cy="291.3" r="167.2"/>
			</defs>
			<clipPath id="SVGID_4_">
				<use xlink:href="#SVGID_3_"  style="overflow:visible;"/>
			</clipPath>
			<g class="st5">
				<path class="st6" d="M391.4,308.8v-24.7h-14.3v24.7c-15,3.3-26.3,16.6-26.3,32.7c0,18.5,15,33.4,33.4,33.4s33.4-15,33.4-33.4
					C417.7,325.4,406.4,312,391.4,308.8z"/>
				<path class="st6" d="M370.1,155.7v41.1v70.1v17H398v-77.8v-9.3V155c0-44.3-35.9-80.3-80.3-80.3h-2c-44.3,0-80.3,35.9-80.3,80.3
					v51.2c0,1.5,0,3.1,0.1,4.6v95c0,28.8-23.3,52.1-52.1,52.1h-1.3c-28.8,0-52.1-23.3-52.1-52.1v-51.1h-7.3v-22.2
					c37.7-3.5,67.1-35.2,67.1-73.7V77.4h-0.2h-14.1h-15.2v-5.8h-14c-7.4,0-13.3,6-13.3,13.3c0,7.4,6,13.3,13.3,13.3h14v-5.9h15.2
					v67.2c0,33-26.7,59.7-59.7,59.7s-59.7-26.7-59.7-59.7V92.4H71v5.9h14c7.4,0,13.3-6,13.3-13.3c0-7.4-6-13.3-13.3-13.3H71v5.8
					H56.1H41.8v15v66.3c0,38.6,29.5,70.2,67.1,73.7v22.3h-8.1V306c0,44.4,36,80.5,80.5,80.5h2c44.4,0,80.5-36,80.5-80.5v-38.5
					l0.3-111.8c0-28.9,23.5-52.4,52.4-52.4h1.3C346.6,103.3,370.1,126.8,370.1,155.7z"/>
			</g>
		</g>
	</g>
	<g>
		<rect x="377.1" y="277.3" class="st7" width="14.3" height="26.9"/>
		<circle class="st7" cx="384.2" cy="334.6" r="33.4"/>
		<circle class="st8" cx="384.2" cy="334.6" r="18.6"/>
		<rect x="108.9" y="223.2" class="st7" width="13.8" height="25"/>
		<circle class="st7" cx="384.2" cy="334.6" r="9.1"/>
		<path class="st9" d="M317.7,68h-2c-44.3,0-80.3,35.9-80.3,80.3v51.2c0,1.5,0,3.1,0.1,4.6v95c0,28.8-23.3,52.1-52.1,52.1h-1.3
			c-28.8,0-52.1-23.3-52.1-52.1V248l-29.3,0.1v51.3c0,44.4,36,80.5,80.5,80.5h2c44.4,0,80.5-36,80.5-80.5v-38.5L264,149
			c0-28.9,23.5-52.4,52.4-52.4h1.3c28.9,0,52.4,23.5,52.4,52.4v41v70.1v17H398v-77.8V190v-41.8C398,103.9,362,68,317.7,68z"/>
		<path class="st7" d="M175.6,70.6v82.2c0,33-26.7,59.7-59.7,59.7s-59.7-26.7-59.7-59.7V70.6H41.8v81.3c0,40.9,33.2,74.1,74.1,74.1
			s74.1-33.2,74.1-74.1V70.6H175.6z"/>
		<rect x="41.8" y="70.6" class="st7" width="29.2" height="15"/>
		<rect x="160.4" y="70.6" class="st7" width="29.2" height="15"/>
		<path class="st8" d="M98.4,78.2c0,7.4-6,13.3-13.3,13.3H71V64.8h14C92.4,64.8,98.4,70.8,98.4,78.2L98.4,78.2z"/>
		<path class="st8" d="M133.1,78.2c0,7.4,6,13.3,13.3,13.3h14V64.8h-14C139,64.8,133.1,70.8,133.1,78.2L133.1,78.2z"/>
	</g>
</g>
</svg>
