<?xml version="1.0" encoding="utf-8"?>
<!-- Generator: Adobe Illustrator 19.0.0, SVG Export Plug-In . SVG Version: 6.00 Build 0)  -->
<svg version="1.1" id="Layer_6" xmlns="http://www.w3.org/2000/svg" xmlns:xlink="http://www.w3.org/1999/xlink" x="0px" y="0px"
	 viewBox="6 -6 512 512" style="enable-background:new 6 -6 512 512;" xml:space="preserve">
<style type="text/css">
	.st0{fill:#60ADE0;}
	.st1{fill:#53A1D8;}
	.st2{fill:#E5E5E5;}
	.st3{fill:#158F98;}
	.st4{clip-path:url(#SVGID_2_);fill:#488DBE;}
	.st5{fill:#FBD2AB;}
	.st6{fill:#94C9E3;}
	.st7{fill:#F58220;}
	.st8{clip-path:url(#SVGID_4_);fill:#FFFFFF;}
	.st9{fill:#E4E4E4;}
	.st10{fill:#E9C09D;}
	.st11{fill:#FBDFC4;}
	.st12{fill:#383B3B;}
	.st13{fill:#FFFFFF;}
	.st14{fill:#F26A45;}
	.st15{fill:#DEBA97;}
	.st16{fill:#8FC1DB;}
	.st17{fill:#EF6D2B;}
	.st18{clip-path:url(#SVGID_6_);fill:#F3F3F3;}
	.st19{fill:#D8D9D8;}
	.st20{fill:#EEC7A2;}
	.st21{fill:#DEB696;}
	.st22{fill:#E6C29D;}
	.st23{fill:#F3F3F3;}
	.st24{fill:#EC6440;}
	.st25{fill:#5D3918;}
</style>
<g>
	<circle class="st0" cx="262.1" cy="291.2" r="167.1"/>
	<path class="st1" d="M186.3,211.6c0,0-13.9,85.9,74.4,85.9s75.8-85.9,75.8-85.9H186.3z"/>
	<path class="st2" d="M486.3,148.1c0-37.3-30.2-67.5-67.5-67.5s-67.5,30.2-67.5,67.5c0,18.4,7.4,35.1,19.4,47.3l0,0
		c10.2,11.3,6.2,32.8,6.2,32.8s7-4.2,13-6.2c5.9-2,23.2-3.4,41.7-7.6l0,0C462.7,208.5,486.3,181.1,486.3,148.1z"/>
	<path class="st3" d="M487.1,138.8c0-37.3-30.2-67.5-67.5-67.5S352,101.5,352,138.8c0,18.4,7.4,35.1,19.4,47.3l0,0
		c10.2,11.3,6.2,32.8,6.2,32.8s7-4.2,13-6.2c5.9-2,23.2-3.4,41.7-7.6l0,0C463.5,199.2,487.1,171.8,487.1,138.8z"/>
	<g>
		<g>
			<defs>
				<circle id="SVGID_1_" cx="262.1" cy="291.2" r="167.1"/>
			</defs>
			<clipPath id="SVGID_2_">
				<use xlink:href="#SVGID_1_"  style="overflow:visible;"/>
			</clipPath>
			<path class="st4" d="M134.3,413.6L150,353h222l17.9,63.9c0,0-49.4,50-130.4,49.7S134.3,413.6,134.3,413.6z"/>
		</g>
	</g>
	<polygon class="st5" points="222.8,300.5 222.8,280.6 261.6,280.6 261.6,322.2 242.2,322.2 	"/>
	<polygon class="st6" points="254.4,319.3 223,298.3 203.4,302.2 253.4,409 	"/>
	<polygon class="st7" points="261.6,318.3 251.3,318.3 243.1,328.7 252.4,338.4 245.3,380.9 261.6,413.5 	"/>
	<g>
		<g>
			<defs>
				<circle id="SVGID_3_" cx="262.1" cy="291.2" r="167.1"/>
			</defs>
			<clipPath id="SVGID_4_">
				<use xlink:href="#SVGID_3_"  style="overflow:visible;"/>
			</clipPath>
			<path class="st8" d="M261.6,459.9v-40l-55.7-118.3c0,0-58.4,10.7-58.4,65.1s1.7,77.9,1.7,77.9S211.8,462,261.6,459.9z"/>
		</g>
	</g>
	<polygon class="st9" points="261.6,424.4 199.7,362.2 212.8,340 196.5,331.6 205.9,301.7 261.6,408.5 	"/>
	<path class="st5" d="M261.6,131.5v133.2c0,0-50.7,10.9-65.6-24.3c-14.9-35.2,0-98,0-98S195.9,104.8,261.6,131.5z"/>
	<path class="st10" d="M196.4,166.2c0,0,0,30.9,0,53.6s21.9,35.7,21.9,35.7s3.8-10.5,16.6-19.8s26.7-7.8,26.7-7.8v60.4
		c0,0-7.8,0-18.6,0s-30.9-6-43.6-22.3S186,239.1,186,212.7s0-46.5,0-46.5H196.4z"/>
	<path class="st5" d="M187.2,202.3c0,0-16.9,0.7-16.9-15.9s16.9-15.5,16.9-15.5V202.3z"/>
	<path class="st11" d="M261.6,216.2c0,0-10.5,0-12.6,0s-4.2-1.1-1.4-8.2s8.2-20,9.8-22.9c1.5-2.9,4.2-4.2,4.2-4.2V216.2z"/>
	<circle class="st12" cx="231.3" cy="175.9" r="8.4"/>
	<path class="st12" d="M261.6,251.6H243c0,0,0.1,7.1,6.4,13c6.3,5.9,12.3,5.3,12.3,5.3v-18.3H261.6z"/>
	<polygon class="st13" points="261.6,246.4 243.4,246.4 243,251.6 261.6,251.6 	"/>
	<path class="st14" d="M249.6,264.8c0,0,1.1-1.2,4.6-3.1s7.5-2.1,7.5-2.1v10.3C261.6,269.9,256.1,270.5,249.6,264.8z"/>
	<polygon class="st15" points="300.3,300.5 300.3,280.6 261.5,280.6 261.5,322.2 280.9,322.2 	"/>
	<polygon class="st16" points="268.7,319.3 300.1,298.3 319.7,302.2 269.7,409 	"/>
	<polygon class="st17" points="261.5,318.3 271.8,318.3 280,328.7 270.7,338.4 277.8,380.9 261.5,413.5 	"/>
	<g>
		<g>
			<defs>
				<circle id="SVGID_5_" cx="262.1" cy="291.2" r="167.1"/>
			</defs>
			<clipPath id="SVGID_6_">
				<use xlink:href="#SVGID_5_"  style="overflow:visible;"/>
			</clipPath>
			<path class="st18" d="M261.5,459.9v-40l55.7-118.3c0,0,58.4,10.7,58.4,65.1s-1.7,77.9-1.7,77.9S311.3,462,261.5,459.9z"/>
		</g>
	</g>
	<polygon class="st19" points="261.5,424.4 323.5,362.2 310.3,340 326.6,331.6 317.2,301.7 261.5,408.5 	"/>
	<path class="st20" d="M261.5,131.5v133.2c0,0,50.7,10.9,65.6-24.3s0-98,0-98S327.2,104.8,261.5,131.5z"/>
	<path class="st21" d="M326.7,166.2c0,0,0,30.9,0,53.6s-21.9,35.7-21.9,35.7s-3.8-10.5-16.6-19.8s-26.7-7.8-26.7-7.8v60.4
		c0,0,7.8,0,18.6,0s30.9-6,43.6-22.3s13.4-26.9,13.4-53.3s0-46.5,0-46.5H326.7z"/>
	<path class="st22" d="M335.9,202.3c0,0,16.9,0.7,16.9-15.9s-16.9-15.5-16.9-15.5V202.3z"/>
	<path class="st5" d="M261.5,216.2c0,0,10.5,0,12.6,0s4.2-1.1,1.4-8.2c-2.8-7.1-8.2-20-9.8-22.9c-1.5-2.9-4.2-4.2-4.2-4.2V216.2
		L261.5,216.2z"/>
	<circle class="st12" cx="291.8" cy="175.9" r="8.4"/>
	<path class="st12" d="M261.5,251.6h18.6c0,0-0.1,7.1-6.4,13s-12.3,5.3-12.3,5.3L261.5,251.6L261.5,251.6z"/>
	<polygon class="st23" points="261.5,246.4 279.7,246.4 280.1,251.6 261.5,251.6 	"/>
	<path class="st24" d="M273.5,264.8c0,0-1.1-1.2-4.6-3.1s-7.5-2.1-7.5-2.1v10.3C261.5,269.9,267,270.5,273.5,264.8z"/>
	<rect x="374.3" y="121.5" class="st13" width="90.1" height="7.1"/>
	<rect x="374.3" y="137.2" class="st13" width="90.1" height="7.1"/>
	<rect x="374.3" y="152.9" class="st13" width="59.9" height="7.1"/>
	<path class="st25" d="M186.3,171.1c0,0,5.9,0,8.8,0s8-5.9,8-10.7c0-4.9,0-16.5,0-20.8s4-10.6,17.5-10.6s31.1,11.3,48.6,14.5
		s25.7,1.5,25.7,1.5s-4.7-2.7-10.1-6.8s-7.5-9.2-7.5-9.2s23,0,29.6,0s13.3,4.3,13.3,18.8s2.9,23.3,8.8,23.3s7.7,0,7.7,0
		s0-19.7,0-28.9s-3.5-26.5-23-43.8s-48-16.3-48-16.3s0.7-2.2,0.8-7.1s-1.5-8.1-1.5-8.1s-3.5,5.4-7.3,9.5c-3.8,4-7.8,5.4-7.8,5.4
		s-0.3-5.4-7.4-9.4c-7.1-3.9-16.1-2.4-16.1-2.4s5.6,5.4,7.1,8.4c1.5,2.9,2.1,7.1,2.1,7.1S211.1,89,195.3,114
		S186.3,171.1,186.3,171.1z"/>
	<polygon class="st22" points="248,216.2 261.1,228.2 261.1,216.2 	"/>
	<path class="st19" d="M303.4,392.4c0,0,0,13,0,19s5.2,11.3,14.9,11.3S335,419,335,409.9s0-17.5,0-17.5H303.4z"/>
	<rect x="310.2" y="382" class="st3" width="6.4" height="18.7"/>
	<rect x="321.9" y="382" class="st7" width="6.4" height="18.7"/>
</g>
</svg>
